<svg width="217" height="21" viewBox="0 0 217 21" fill="none" xmlns="http://www.w3.org/2000/svg">
<path d="M19.992 -1.43051e-06C20.28 0.991999 20.56 1.992 20.832 3C21.12 3.992 21.4 4.992 21.672 6C21.96 6.992 22.248 7.992 22.536 9C22.824 9.992 23.104 10.992 23.376 12C23.664 12.992 23.944 13.992 24.216 15C24.504 15.992 24.792 16.992 25.08 18H14.376L13.968 15.648C13.904 15.648 13.848 15.648 13.8 15.648C13.752 15.648 13.696 15.648 13.632 15.648H10.992C10.944 15.648 10.896 15.648 10.848 15.648C10.8 15.648 10.752 15.648 10.704 15.648L10.296 18H0.048C0.336 16.992 0.616 15.992 0.888 15C1.176 13.992 1.456 12.992 1.728 12C2.016 10.992 2.296 9.992 2.568 9C2.856 7.992 3.136 6.992 3.408 6C3.696 4.992 3.976 3.992 4.248 3C4.536 1.992 4.816 0.991999 5.088 -1.43051e-06H19.992ZM10.992 13.944C10.992 13.96 10.992 13.968 10.992 13.968C10.992 13.968 11 13.968 11.016 13.968H13.656C13.672 13.968 13.68 13.968 13.68 13.968C13.68 13.952 13.68 13.944 13.68 13.944C13.68 13.944 13.648 13.752 13.584 13.368C13.52 12.968 13.432 12.472 13.32 11.88C13.224 11.272 13.12 10.632 13.008 9.96C12.896 9.272 12.792 8.624 12.696 8.016C12.6 7.408 12.512 6.912 12.432 6.528C12.368 6.144 12.336 5.952 12.336 5.952C12.336 5.952 12.328 5.952 12.312 5.952C12.312 5.952 12.28 6.144 12.216 6.528C12.152 6.912 12.064 7.408 11.952 8.016C11.856 8.624 11.752 9.272 11.64 9.96C11.528 10.632 11.424 11.272 11.328 11.88C11.232 12.472 11.152 12.968 11.088 13.368C11.024 13.752 10.992 13.944 10.992 13.944ZM25.605 18C25.605 17.264 25.605 16.536 25.605 15.816C25.605 15.08 25.605 14.352 25.605 13.632C25.605 12.896 25.605 12.168 25.605 11.448C25.605 11.144 25.605 10.84 25.605 10.536C25.605 10.232 25.605 9.928 25.605 9.624C26.533 9.624 27.453 9.624 28.365 9.624C29.293 9.624 30.221 9.624 31.149 9.624C32.077 9.624 32.997 9.624 33.909 9.624C33.909 10.552 33.909 11.48 33.909 12.408C33.909 13.336 33.909 14.272 33.909 15.216C33.909 16.144 33.909 17.072 33.909 18H25.605ZM25.605 9.624C25.605 8.536 25.605 7.448 25.605 6.36C25.605 5.272 25.605 4.192 25.605 3.12H33.909C33.909 3.648 33.909 4.176 33.909 4.704C33.909 5.232 33.909 5.76 33.909 6.288C33.909 6.816 33.909 7.344 33.909 7.872C33.909 7.872 33.901 7.88 33.885 7.896C32.509 8.184 31.125 8.472 29.733 8.76C28.357 9.048 26.981 9.336 25.605 9.624ZM43.1668 3.12C43.1668 4.08 43.1668 5.048 43.1668 6.024C43.1668 6.984 43.1668 7.952 43.1668 8.928C43.1668 9.888 43.1668 10.856 43.1668 11.832C43.1668 12.856 43.1668 13.88 43.1668 14.904C43.1668 15.928 43.1668 16.96 43.1668 18H34.8628C34.8628 16.416 34.8628 14.832 34.8628 13.248C34.8628 11.664 34.8628 10.08 34.8628 8.496C34.8628 7.6 34.8628 6.704 34.8628 5.808C34.8628 4.912 34.8628 4.016 34.8628 3.12H43.1668ZM43.1428 12.288L44.4388 5.832C44.5828 5.144 44.8628 4.576 45.2788 4.128C45.7108 3.664 46.2148 3.312 46.7908 3.072C47.3668 2.832 47.9588 2.688 48.5668 2.64C49.1748 2.576 49.7348 2.6 50.2468 2.712C50.7588 2.808 51.1668 2.976 51.4708 3.216L49.6468 12.144C49.1828 11.76 48.6148 11.496 47.9428 11.352C47.2868 11.208 46.6228 11.16 45.9508 11.208C45.2788 11.24 44.6868 11.352 44.1748 11.544C43.6628 11.736 43.3188 11.984 43.1428 12.288ZM67.3517 -1.43051e-06C68.8397 -1.43051e-06 70.1357 0.207999 71.2397 0.623999C72.3597 1.024 73.2797 1.576 73.9997 2.28C74.7357 2.968 75.2877 3.752 75.6557 4.632C76.0237 5.512 76.2077 6.424 76.2077 7.368C76.2077 8.376 76.0157 9.336 75.6317 10.248C75.2637 11.144 74.7037 11.944 73.9517 12.648C73.2157 13.352 72.2957 13.912 71.1917 14.328C70.0877 14.728 68.8077 14.928 67.3517 14.928H62.1917C62.1917 14.928 62.1837 14.936 62.1677 14.952C62.1677 14.952 62.1597 14.952 62.1437 14.952C62.1437 14.952 62.1437 14.96 62.1437 14.976V18H52.1597C52.1597 16.928 52.1597 15.856 52.1597 14.784C52.1597 13.712 52.1597 12.64 52.1597 11.568C52.1597 10.496 52.1597 9.424 52.1597 8.352C52.1597 7.28 52.1597 6.208 52.1597 5.136C52.1597 4.272 52.1597 3.416 52.1597 2.568C52.1597 1.704 52.1597 0.847999 52.1597 -1.43051e-06H67.3517ZM64.3997 9.72C64.8797 9.72 65.2797 9.64 65.5997 9.48C65.9357 9.304 66.1837 9.088 66.3437 8.832C66.5037 8.56 66.5837 8.288 66.5837 8.016C66.5837 7.728 66.5037 7.464 66.3437 7.224C66.1837 6.968 65.9437 6.76 65.6237 6.6C65.3037 6.44 64.8957 6.36 64.3997 6.36H62.1917C62.1757 6.36 62.1597 6.368 62.1437 6.384C62.1437 6.384 62.1437 6.392 62.1437 6.408V9.696C62.1597 9.696 62.1677 9.704 62.1677 9.72C62.1837 9.72 62.1917 9.72 62.1917 9.72H64.3997ZM85.1903 3.12C85.1903 4.08 85.1903 5.048 85.1903 6.024C85.1903 6.984 85.1903 7.952 85.1903 8.928C85.1903 9.888 85.1903 10.856 85.1903 11.832C85.1903 12.856 85.1903 13.88 85.1903 14.904C85.1903 15.928 85.1903 16.96 85.1903 18H76.8863C76.8863 16.416 76.8863 14.832 76.8863 13.248C76.8863 11.664 76.8863 10.08 76.8863 8.496C76.8863 7.6 76.8863 6.704 76.8863 5.808C76.8863 4.912 76.8863 4.016 76.8863 3.12H85.1903ZM85.1663 12.288L86.4623 5.832C86.6063 5.144 86.8863 4.576 87.3023 4.128C87.7343 3.664 88.2383 3.312 88.8143 3.072C89.3903 2.832 89.9823 2.688 90.5903 2.64C91.1983 2.576 91.7583 2.6 92.2703 2.712C92.7823 2.808 93.1903 2.976 93.4943 3.216L91.6703 12.144C91.2063 11.76 90.6383 11.496 89.9662 11.352C89.3103 11.208 88.6463 11.16 87.9743 11.208C87.3023 11.24 86.7103 11.352 86.1983 11.544C85.6863 11.736 85.3423 11.984 85.1663 12.288ZM103.97 18.72C102.978 18.72 102.018 18.648 101.09 18.504C100.162 18.36 99.2977 18.144 98.4977 17.856C97.6977 17.552 96.9697 17.176 96.3137 16.728C95.6577 16.28 95.0977 15.76 94.6337 15.168C94.1697 14.56 93.8097 13.88 93.5537 13.128C93.2977 12.36 93.1697 11.512 93.1697 10.584C93.1697 9.496 93.3457 8.52 93.6977 7.656C94.0657 6.776 94.5777 6.008 95.2337 5.352C95.9057 4.696 96.6897 4.152 97.5857 3.72C98.4817 3.272 99.4657 2.944 100.538 2.736C101.626 2.512 102.77 2.4 103.97 2.4C105.474 2.4 106.874 2.576 108.17 2.928C109.482 3.264 110.626 3.776 111.602 4.464C112.594 5.136 113.37 5.984 113.93 7.008C114.49 8.032 114.77 9.224 114.77 10.584C114.77 11.944 114.49 13.136 113.93 14.16C113.37 15.168 112.594 16.016 111.602 16.704C110.626 17.376 109.482 17.88 108.17 18.216C106.874 18.552 105.474 18.72 103.97 18.72ZM103.994 12.36C104.986 12.36 105.69 12.168 106.106 11.784C106.522 11.4 106.73 10.984 106.73 10.536C106.73 10.328 106.682 10.12 106.586 9.912C106.49 9.704 106.338 9.512 106.13 9.336C105.922 9.16 105.642 9.024 105.29 8.928C104.938 8.816 104.506 8.76 103.994 8.76C103.482 8.76 103.042 8.816 102.674 8.928C102.322 9.024 102.034 9.16 101.81 9.336C101.602 9.512 101.45 9.704 101.354 9.912C101.258 10.12 101.21 10.336 101.21 10.56C101.21 10.784 101.258 11.008 101.354 11.232C101.45 11.44 101.61 11.632 101.834 11.808C102.058 11.968 102.346 12.104 102.698 12.216C103.05 12.312 103.482 12.36 103.994 12.36ZM140.477 7.056H130.277C130.277 7.056 130.277 7.064 130.277 7.08V8.472C130.277 8.488 130.277 8.496 130.277 8.496H140.117V14.208H130.277C130.277 14.208 130.277 14.216 130.277 14.232C130.277 14.776 130.277 15.232 130.277 15.6C130.277 15.952 130.277 16.304 130.277 16.656C130.277 17.008 130.277 17.456 130.277 18H120.293C120.293 16.864 120.293 15.728 120.293 14.592C120.293 13.456 120.293 12.328 120.293 11.208C120.293 10.072 120.293 8.936 120.293 7.8C120.293 6.664 120.293 5.528 120.293 4.392C120.293 3.656 120.293 2.928 120.293 2.208C120.293 1.472 120.293 0.735999 120.293 -1.43051e-06H140.477V7.056ZM149.643 3.12C149.643 4.08 149.643 5.048 149.643 6.024C149.643 6.984 149.643 7.952 149.643 8.928C149.643 9.888 149.643 10.856 149.643 11.832C149.643 12.856 149.643 13.88 149.643 14.904C149.643 15.928 149.643 16.96 149.643 18H141.339C141.339 16.416 141.339 14.832 141.339 13.248C141.339 11.664 141.339 10.08 141.339 8.496C141.339 7.6 141.339 6.704 141.339 5.808C141.339 4.912 141.339 4.016 141.339 3.12H149.643ZM149.619 12.288L150.915 5.832C151.059 5.144 151.339 4.576 151.755 4.128C152.187 3.664 152.691 3.312 153.267 3.072C153.843 2.832 154.435 2.688 155.043 2.64C155.651 2.576 156.211 2.6 156.723 2.712C157.235 2.808 157.643 2.976 157.947 3.216L156.123 12.144C155.659 11.76 155.091 11.496 154.419 11.352C153.763 11.208 153.099 11.16 152.427 11.208C151.755 11.24 151.163 11.352 150.651 11.544C150.139 11.736 149.795 11.984 149.619 12.288ZM164.876 20.88C165.164 20.56 165.444 20.24 165.716 19.92C165.988 19.6 166.26 19.28 166.532 18.96C166.82 18.64 167.1 18.32 167.372 18H162.884C162.356 16.336 161.828 14.68 161.3 13.032C160.772 11.384 160.244 9.736 159.716 8.088C159.188 6.424 158.66 4.768 158.132 3.12H166.94C167.228 4.832 167.508 6.544 167.78 8.256C168.068 9.968 168.356 11.68 168.644 13.392C168.644 13.392 168.644 13.416 168.644 13.464C168.66 13.512 168.668 13.536 168.668 13.536C168.668 13.536 168.668 13.528 168.668 13.512C168.684 13.48 168.692 13.456 168.692 13.44C168.692 13.424 168.692 13.416 168.692 13.416C168.9 12.264 169.1 11.12 169.292 9.984C169.484 8.832 169.676 7.688 169.868 6.552C170.076 5.4 170.276 4.256 170.468 3.12H178.82C178.18 5.104 177.532 7.08 176.876 9.048C176.236 11.016 175.596 12.984 174.956 14.952C174.316 16.92 173.668 18.896 173.012 20.88H164.876ZM188.697 12.576C189.545 12.576 190.201 12.424 190.665 12.12C191.129 11.816 191.369 11.4 191.385 10.872L198.801 13.296C198.513 14.304 197.897 15.224 196.953 16.056C196.025 16.872 194.849 17.52 193.425 18C192.001 18.48 190.409 18.72 188.649 18.72C187.145 18.72 185.737 18.552 184.425 18.216C183.129 17.88 181.985 17.376 180.993 16.704C180.017 16.016 179.249 15.16 178.689 14.136C178.129 13.112 177.849 11.92 177.849 10.56C177.849 9.2 178.129 8.008 178.689 6.984C179.249 5.96 180.017 5.112 180.993 4.44C181.985 3.752 183.137 3.24 184.449 2.904C185.761 2.568 187.161 2.4 188.649 2.4C190.169 2.4 191.561 2.568 192.825 2.904C194.105 3.24 195.201 3.76 196.113 4.464C197.041 5.152 197.753 6.032 198.249 7.104C198.761 8.16 199.017 9.416 199.017 10.872H185.937C185.937 10.872 185.929 10.872 185.913 10.872C185.913 10.872 185.913 10.88 185.913 10.896C185.913 11.136 185.977 11.36 186.105 11.568C186.233 11.776 186.409 11.96 186.633 12.12C186.873 12.264 187.161 12.376 187.497 12.456C187.849 12.536 188.249 12.576 188.697 12.576ZM188.649 8.472C187.865 8.472 187.217 8.616 186.705 8.904C186.193 9.176 185.937 9.568 185.937 10.08C185.937 10.096 185.937 10.112 185.937 10.128C185.953 10.128 185.961 10.128 185.961 10.128H191.313C191.329 10.128 191.337 10.128 191.337 10.128C191.337 10.112 191.337 10.096 191.337 10.08C191.337 9.824 191.265 9.6 191.121 9.408C190.993 9.2 190.809 9.032 190.569 8.904C190.329 8.76 190.041 8.656 189.705 8.592C189.385 8.512 189.033 8.472 188.649 8.472ZM208.003 3.12C208.003 4.08 208.003 5.048 208.003 6.024C208.003 6.984 208.003 7.952 208.003 8.928C208.003 9.888 208.003 10.856 208.003 11.832C208.003 12.856 208.003 13.88 208.003 14.904C208.003 15.928 208.003 16.96 208.003 18H199.699C199.699 16.416 199.699 14.832 199.699 13.248C199.699 11.664 199.699 10.08 199.699 8.496C199.699 7.6 199.699 6.704 199.699 5.808C199.699 4.912 199.699 4.016 199.699 3.12H208.003ZM207.979 12.288L209.275 5.832C209.419 5.144 209.699 4.576 210.115 4.128C210.547 3.664 211.051 3.312 211.627 3.072C212.203 2.832 212.795 2.688 213.403 2.64C214.011 2.576 214.571 2.6 215.083 2.712C215.595 2.808 216.003 2.976 216.307 3.216L214.483 12.144C214.019 11.76 213.451 11.496 212.779 11.352C212.123 11.208 211.459 11.16 210.787 11.208C210.115 11.24 209.523 11.352 209.011 11.544C208.499 11.736 208.155 11.984 207.979 12.288Z" fill="#A1E269"/>
</svg>
