<svg width="44" height="50" viewBox="0 0 44 50" fill="none" xmlns="http://www.w3.org/2000/svg">
<path d="M31.7646 49.8023C33.8113 49.8023 35.4705 47.9661 35.4705 45.701C35.4705 43.4359 33.8113 41.5996 31.7646 41.5996C29.7179 41.5996 28.0587 43.4359 28.0587 45.701C28.0587 47.9661 29.7179 49.8023 31.7646 49.8023Z" fill="#A1E269"/>
<path d="M14.8235 49.8023C16.8702 49.8023 18.5294 47.9661 18.5294 45.701C18.5294 43.4359 16.8702 41.5996 14.8235 41.5996C12.7768 41.5996 11.1176 43.4359 11.1176 45.701C11.1176 47.9661 12.7768 49.8023 14.8235 49.8023Z" fill="#A1E269"/>
<path d="M7.60235 6.30439L7.17882 12.0463C7.09412 13.1478 7.87765 14.0618 8.87294 14.0618H41.2941C42.1835 14.0618 42.9247 13.3119 42.9882 12.3275C43.2635 8.1793 40.4047 4.80446 36.6565 4.80446H10.6306C10.4188 3.77326 9.99529 2.78893 9.33882 1.96866C8.28 0.726528 6.79765 0 5.27294 0H1.58824C0.72 0 0 0.796837 0 1.75773C0 2.71862 0.72 3.51546 1.58824 3.51546H5.27294C5.92941 3.51546 6.54353 3.82013 6.98824 4.33573C7.43294 4.87477 7.64471 5.57786 7.60235 6.30439Z" fill="#A1E269"/>
<path d="M40.786 17.5774H8.30115C7.41174 17.5774 6.69174 18.3274 6.60704 19.2882L5.84468 29.4831C5.54821 33.4907 8.38586 36.9124 12.007 36.9124H35.5554C38.7318 36.9124 41.5271 34.0297 41.7601 30.5143L42.4589 19.5695C42.5436 18.4914 41.7813 17.5774 40.786 17.5774Z" fill="#A1E269"/>
</svg>
